<svg width="26" height="26" xmlns="http://www.w3.org/2000/svg">

 <g>
  <title>background</title>
  <rect fill="none" id="canvas_background" height="402" width="582" y="-1" x="-1"/>
 </g>
 <g>
  <title>Layer 1</title>
  <path id="svg_1" fill="#ffffff" d="m14.4364,13.0001l11.2661,-11.26626c0.3967,-0.39666 0.3967,-1.03975 0,-1.43635c-0.3966,-0.3966 -1.0397,-0.39665 -1.4363,0l-11.2662,11.26621l-11.26617,-11.26621c-0.39665,-0.39665 -1.03974,-0.39665 -1.43634,0c-0.3966,0.39665 -0.39665,1.03974 0,1.43635l11.26611,11.26616l-11.26611,11.2662c-0.39665,0.3967 -0.39665,1.0398 0,1.4364c0.1983,0.1983 0.45825,0.2974 0.7182,0.2974c0.25994,0 0.51984,-0.0991 0.71819,-0.2974l11.26612,-11.2662l11.2661,11.2662c0.1983,0.1983 0.4583,0.2974 0.7182,0.2974c0.26,0 0.5199,-0.0991 0.7182,-0.2974c0.3967,-0.3967 0.3967,-1.0398 0,-1.4364l-11.2661,-11.2661z" clip-rule="evenodd" fill-rule="evenodd"/>
 </g>
</svg>