<svg width="37" height="29" xmlns="http://www.w3.org/2000/svg">

 <g>
  <title>background</title>
  <rect fill="none" id="canvas_background" height="402" width="582" y="-1" x="-1"/>
 </g>
 <g>
  <title>Layer 1</title>
  <path id="svg_1" fill="#ffffff" d="m35.4583,26l-33.91663,0c-0.851,0 -1.54167,0.672 -1.54167,1.5c0,0.828 0.69067,1.5 1.54167,1.5l33.91663,0c0.851,0 1.5417,-0.672 1.5417,-1.5c0,-0.828 -0.6907,-1.5 -1.5417,-1.5z"/>
  <path id="svg_2" fill="#ffffff" d="m35.5,0l-21,0c-0.828,0 -1.5,0.672 -1.5,1.5c0,0.828 0.672,1.5 1.5,1.5l21,0c0.828,0 1.5,-0.672 1.5,-1.5c0,-0.828 -0.672,-1.5 -1.5,-1.5z"/>
  <path stroke="null" id="svg_3" fill="#ffffff" d="m35.4583,9l-33.91663,0c-0.851,0 -1.54167,0.672 -1.54167,1.5c0,0.828 0.69067,1.5 1.54167,1.5l33.91663,0c0.851,0 1.5417,-0.672 1.5417,-1.5c0,-0.828 -0.6907,-1.5 -1.5417,-1.5z"/>
  <path id="svg_4" fill="#ffffff" d="m35.5,18.125113l-21,0c-0.828,0 -1.5,0.672 -1.5,1.5c0,0.828 0.672,1.5 1.5,1.5l21,0c0.828,0 1.5,-0.672 1.5,-1.5c0,-0.828 -0.672,-1.5 -1.5,-1.5z"/>
 </g>
</svg>